<mxfile host="app.diagrams.net" agent="Mozilla/5.0 (Macintosh; Intel Mac OS X 10_15_7) AppleWebKit/537.36 (KHTML, like Gecko) Chrome/137.0.0.0 Safari/537.36" version="27.1.6">
  <diagram name="Page-1" id="dEgAFbbm4MSI8zrmwuXt">
    <mxGraphModel dx="976" dy="544" grid="1" gridSize="10" guides="1" tooltips="1" connect="1" arrows="1" fold="1" page="1" pageScale="1" pageWidth="827" pageHeight="1169" math="0" shadow="0">
      <root>
        <mxCell id="0" />
        <mxCell id="1" parent="0" />
        <mxCell id="hZe7DRyJ5SFJ-O_IEpeI-1" value="Penjualan Dengan Sistem" style="swimlane;childLayout=stackLayout;resizeParent=1;resizeParentMax=0;startSize=20;html=1;" parent="1" vertex="1">
          <mxGeometry x="230" y="40" width="320" height="1920" as="geometry" />
        </mxCell>
        <mxCell id="hZe7DRyJ5SFJ-O_IEpeI-2" value="Pelanggan" style="swimlane;startSize=20;html=1;" parent="hZe7DRyJ5SFJ-O_IEpeI-1" vertex="1">
          <mxGeometry y="20" width="160" height="1900" as="geometry" />
        </mxCell>
        <mxCell id="adfcFUYsd-1WnI35mxaD-2" value="" style="edgeStyle=orthogonalEdgeStyle;rounded=0;orthogonalLoop=1;jettySize=auto;html=1;" edge="1" parent="hZe7DRyJ5SFJ-O_IEpeI-2" source="hZe7DRyJ5SFJ-O_IEpeI-5" target="adfcFUYsd-1WnI35mxaD-1">
          <mxGeometry relative="1" as="geometry" />
        </mxCell>
        <mxCell id="hZe7DRyJ5SFJ-O_IEpeI-5" value="START" style="ellipse;whiteSpace=wrap;html=1;" parent="hZe7DRyJ5SFJ-O_IEpeI-2" vertex="1">
          <mxGeometry x="20" y="40" width="120" height="60" as="geometry" />
        </mxCell>
        <mxCell id="hZe7DRyJ5SFJ-O_IEpeI-9" style="edgeStyle=orthogonalEdgeStyle;rounded=0;orthogonalLoop=1;jettySize=auto;html=1;exitX=0.5;exitY=1;exitDx=0;exitDy=0;entryX=0.5;entryY=0;entryDx=0;entryDy=0;" parent="hZe7DRyJ5SFJ-O_IEpeI-2" target="hZe7DRyJ5SFJ-O_IEpeI-8" edge="1">
          <mxGeometry relative="1" as="geometry">
            <mxPoint x="79.99999999999955" y="200" as="sourcePoint" />
          </mxGeometry>
        </mxCell>
        <mxCell id="hZe7DRyJ5SFJ-O_IEpeI-14" style="edgeStyle=orthogonalEdgeStyle;rounded=0;orthogonalLoop=1;jettySize=auto;html=1;exitX=0.5;exitY=1;exitDx=0;exitDy=0;entryX=0.5;entryY=0;entryDx=0;entryDy=0;" parent="hZe7DRyJ5SFJ-O_IEpeI-2" target="hZe7DRyJ5SFJ-O_IEpeI-12" edge="1">
          <mxGeometry relative="1" as="geometry">
            <mxPoint x="79.99999999999955" y="300" as="sourcePoint" />
          </mxGeometry>
        </mxCell>
        <mxCell id="hZe7DRyJ5SFJ-O_IEpeI-15" style="edgeStyle=orthogonalEdgeStyle;rounded=0;orthogonalLoop=1;jettySize=auto;html=1;exitX=0.5;exitY=1;exitDx=0;exitDy=0;" parent="hZe7DRyJ5SFJ-O_IEpeI-2" target="hZe7DRyJ5SFJ-O_IEpeI-13" edge="1">
          <mxGeometry relative="1" as="geometry">
            <mxPoint x="79.99999999999955" y="420" as="sourcePoint" />
          </mxGeometry>
        </mxCell>
        <mxCell id="hZe7DRyJ5SFJ-O_IEpeI-18" value="T" style="edgeLabel;html=1;align=center;verticalAlign=middle;resizable=0;points=[];" parent="hZe7DRyJ5SFJ-O_IEpeI-15" vertex="1" connectable="0">
          <mxGeometry x="-0.2878" y="1" relative="1" as="geometry">
            <mxPoint as="offset" />
          </mxGeometry>
        </mxCell>
        <mxCell id="hZe7DRyJ5SFJ-O_IEpeI-16" style="edgeStyle=orthogonalEdgeStyle;rounded=0;orthogonalLoop=1;jettySize=auto;html=1;exitX=1;exitY=0.5;exitDx=0;exitDy=0;entryX=1;entryY=0.5;entryDx=0;entryDy=0;" parent="hZe7DRyJ5SFJ-O_IEpeI-2" source="hZe7DRyJ5SFJ-O_IEpeI-12" edge="1">
          <mxGeometry relative="1" as="geometry">
            <Array as="points">
              <mxPoint x="150" y="380" />
              <mxPoint x="150" y="270" />
            </Array>
            <mxPoint x="139.99999999999955" y="270" as="targetPoint" />
          </mxGeometry>
        </mxCell>
        <mxCell id="hZe7DRyJ5SFJ-O_IEpeI-17" value="F" style="edgeLabel;html=1;align=center;verticalAlign=middle;resizable=0;points=[];" parent="hZe7DRyJ5SFJ-O_IEpeI-16" vertex="1" connectable="0">
          <mxGeometry x="-0.7774" y="1" relative="1" as="geometry">
            <mxPoint as="offset" />
          </mxGeometry>
        </mxCell>
        <mxCell id="hZe7DRyJ5SFJ-O_IEpeI-20" style="edgeStyle=orthogonalEdgeStyle;rounded=0;orthogonalLoop=1;jettySize=auto;html=1;exitX=0.5;exitY=1;exitDx=0;exitDy=0;entryX=0.5;entryY=0;entryDx=0;entryDy=0;" parent="hZe7DRyJ5SFJ-O_IEpeI-2" target="hZe7DRyJ5SFJ-O_IEpeI-19" edge="1">
          <mxGeometry relative="1" as="geometry">
            <mxPoint x="79.99999999999955" y="524.5" as="sourcePoint" />
          </mxGeometry>
        </mxCell>
        <mxCell id="hZe7DRyJ5SFJ-O_IEpeI-22" style="edgeStyle=orthogonalEdgeStyle;rounded=0;orthogonalLoop=1;jettySize=auto;html=1;exitX=0.5;exitY=1;exitDx=0;exitDy=0;" parent="hZe7DRyJ5SFJ-O_IEpeI-2" target="hZe7DRyJ5SFJ-O_IEpeI-21" edge="1">
          <mxGeometry relative="1" as="geometry">
            <mxPoint x="79.99999999999955" y="630" as="sourcePoint" />
          </mxGeometry>
        </mxCell>
        <mxCell id="hZe7DRyJ5SFJ-O_IEpeI-24" style="edgeStyle=orthogonalEdgeStyle;rounded=0;orthogonalLoop=1;jettySize=auto;html=1;exitX=0.5;exitY=1;exitDx=0;exitDy=0;entryX=0.5;entryY=0;entryDx=0;entryDy=0;" parent="hZe7DRyJ5SFJ-O_IEpeI-2" target="hZe7DRyJ5SFJ-O_IEpeI-23" edge="1">
          <mxGeometry relative="1" as="geometry">
            <mxPoint x="79.99999999999955" y="730" as="sourcePoint" />
          </mxGeometry>
        </mxCell>
        <mxCell id="hZe7DRyJ5SFJ-O_IEpeI-26" style="edgeStyle=orthogonalEdgeStyle;rounded=0;orthogonalLoop=1;jettySize=auto;html=1;exitX=0.5;exitY=1;exitDx=0;exitDy=0;entryX=0.5;entryY=0;entryDx=0;entryDy=0;" parent="hZe7DRyJ5SFJ-O_IEpeI-2" target="hZe7DRyJ5SFJ-O_IEpeI-25" edge="1">
          <mxGeometry relative="1" as="geometry">
            <mxPoint x="79.99999999999955" y="830" as="sourcePoint" />
          </mxGeometry>
        </mxCell>
        <mxCell id="hZe7DRyJ5SFJ-O_IEpeI-28" style="edgeStyle=orthogonalEdgeStyle;rounded=0;orthogonalLoop=1;jettySize=auto;html=1;exitX=0.5;exitY=1;exitDx=0;exitDy=0;entryX=0.5;entryY=0;entryDx=0;entryDy=0;" parent="hZe7DRyJ5SFJ-O_IEpeI-2" target="hZe7DRyJ5SFJ-O_IEpeI-27" edge="1">
          <mxGeometry relative="1" as="geometry">
            <mxPoint x="79.99999999999955" y="930" as="sourcePoint" />
          </mxGeometry>
        </mxCell>
        <mxCell id="hZe7DRyJ5SFJ-O_IEpeI-30" style="edgeStyle=orthogonalEdgeStyle;rounded=0;orthogonalLoop=1;jettySize=auto;html=1;exitX=0.5;exitY=1;exitDx=0;exitDy=0;" parent="hZe7DRyJ5SFJ-O_IEpeI-2" target="hZe7DRyJ5SFJ-O_IEpeI-29" edge="1">
          <mxGeometry relative="1" as="geometry">
            <mxPoint x="79.99999999999955" y="1050" as="sourcePoint" />
          </mxGeometry>
        </mxCell>
        <mxCell id="hZe7DRyJ5SFJ-O_IEpeI-33" value="T" style="edgeLabel;html=1;align=center;verticalAlign=middle;resizable=0;points=[];" parent="hZe7DRyJ5SFJ-O_IEpeI-30" vertex="1" connectable="0">
          <mxGeometry x="-0.3615" relative="1" as="geometry">
            <mxPoint as="offset" />
          </mxGeometry>
        </mxCell>
        <mxCell id="hZe7DRyJ5SFJ-O_IEpeI-31" style="edgeStyle=orthogonalEdgeStyle;rounded=0;orthogonalLoop=1;jettySize=auto;html=1;exitX=1;exitY=0.5;exitDx=0;exitDy=0;entryX=1;entryY=0.5;entryDx=0;entryDy=0;" parent="hZe7DRyJ5SFJ-O_IEpeI-2" source="hZe7DRyJ5SFJ-O_IEpeI-27" edge="1">
          <mxGeometry relative="1" as="geometry">
            <Array as="points">
              <mxPoint x="150" y="1010" />
              <mxPoint x="150" y="900" />
            </Array>
            <mxPoint x="139.99999999999955" y="900" as="targetPoint" />
          </mxGeometry>
        </mxCell>
        <mxCell id="hZe7DRyJ5SFJ-O_IEpeI-32" value="F" style="edgeLabel;html=1;align=center;verticalAlign=middle;resizable=0;points=[];" parent="hZe7DRyJ5SFJ-O_IEpeI-31" vertex="1" connectable="0">
          <mxGeometry x="-0.7774" y="-1" relative="1" as="geometry">
            <mxPoint as="offset" />
          </mxGeometry>
        </mxCell>
        <mxCell id="hZe7DRyJ5SFJ-O_IEpeI-41" style="edgeStyle=orthogonalEdgeStyle;rounded=0;orthogonalLoop=1;jettySize=auto;html=1;exitX=0.5;exitY=1;exitDx=0;exitDy=0;entryX=0.5;entryY=0;entryDx=0;entryDy=0;" parent="hZe7DRyJ5SFJ-O_IEpeI-2" target="hZe7DRyJ5SFJ-O_IEpeI-40" edge="1">
          <mxGeometry relative="1" as="geometry">
            <mxPoint x="79.99999999999955" y="1250" as="sourcePoint" />
          </mxGeometry>
        </mxCell>
        <mxCell id="hZe7DRyJ5SFJ-O_IEpeI-43" style="edgeStyle=orthogonalEdgeStyle;rounded=0;orthogonalLoop=1;jettySize=auto;html=1;exitX=0.5;exitY=1;exitDx=0;exitDy=0;entryX=0.5;entryY=0;entryDx=0;entryDy=0;" parent="hZe7DRyJ5SFJ-O_IEpeI-2" target="hZe7DRyJ5SFJ-O_IEpeI-42" edge="1">
          <mxGeometry relative="1" as="geometry">
            <mxPoint x="79.99999999999955" y="1350" as="sourcePoint" />
          </mxGeometry>
        </mxCell>
        <mxCell id="hZe7DRyJ5SFJ-O_IEpeI-51" value="" style="edgeStyle=orthogonalEdgeStyle;rounded=0;orthogonalLoop=1;jettySize=auto;html=1;" parent="hZe7DRyJ5SFJ-O_IEpeI-2" target="hZe7DRyJ5SFJ-O_IEpeI-50" edge="1">
          <mxGeometry relative="1" as="geometry">
            <mxPoint x="79.99999999999955" y="1450" as="sourcePoint" />
          </mxGeometry>
        </mxCell>
        <mxCell id="hZe7DRyJ5SFJ-O_IEpeI-53" value="" style="edgeStyle=orthogonalEdgeStyle;rounded=0;orthogonalLoop=1;jettySize=auto;html=1;" parent="hZe7DRyJ5SFJ-O_IEpeI-2" target="hZe7DRyJ5SFJ-O_IEpeI-52" edge="1">
          <mxGeometry relative="1" as="geometry">
            <mxPoint x="79.99999999999955" y="1570" as="sourcePoint" />
          </mxGeometry>
        </mxCell>
        <mxCell id="hZe7DRyJ5SFJ-O_IEpeI-56" value="T" style="edgeLabel;html=1;align=center;verticalAlign=middle;resizable=0;points=[];" parent="hZe7DRyJ5SFJ-O_IEpeI-53" vertex="1" connectable="0">
          <mxGeometry x="-0.2846" relative="1" as="geometry">
            <mxPoint as="offset" />
          </mxGeometry>
        </mxCell>
        <mxCell id="hZe7DRyJ5SFJ-O_IEpeI-54" style="edgeStyle=orthogonalEdgeStyle;rounded=0;orthogonalLoop=1;jettySize=auto;html=1;exitX=1;exitY=0.5;exitDx=0;exitDy=0;entryX=1;entryY=0.5;entryDx=0;entryDy=0;" parent="hZe7DRyJ5SFJ-O_IEpeI-2" source="hZe7DRyJ5SFJ-O_IEpeI-50" edge="1">
          <mxGeometry relative="1" as="geometry">
            <Array as="points">
              <mxPoint x="150" y="1530" />
              <mxPoint x="150" y="1420" />
            </Array>
            <mxPoint x="139.99999999999955" y="1420" as="targetPoint" />
          </mxGeometry>
        </mxCell>
        <mxCell id="hZe7DRyJ5SFJ-O_IEpeI-55" value="F" style="edgeLabel;html=1;align=center;verticalAlign=middle;resizable=0;points=[];" parent="hZe7DRyJ5SFJ-O_IEpeI-54" vertex="1" connectable="0">
          <mxGeometry x="-0.839" relative="1" as="geometry">
            <mxPoint as="offset" />
          </mxGeometry>
        </mxCell>
        <mxCell id="hZe7DRyJ5SFJ-O_IEpeI-58" value="" style="edgeStyle=orthogonalEdgeStyle;rounded=0;orthogonalLoop=1;jettySize=auto;html=1;" parent="hZe7DRyJ5SFJ-O_IEpeI-2" target="hZe7DRyJ5SFJ-O_IEpeI-57" edge="1">
          <mxGeometry relative="1" as="geometry">
            <mxPoint x="79.99999999999955" y="1670" as="sourcePoint" />
          </mxGeometry>
        </mxCell>
        <mxCell id="adfcFUYsd-1WnI35mxaD-4" value="" style="edgeStyle=orthogonalEdgeStyle;rounded=0;orthogonalLoop=1;jettySize=auto;html=1;" edge="1" parent="hZe7DRyJ5SFJ-O_IEpeI-2" source="adfcFUYsd-1WnI35mxaD-1" target="adfcFUYsd-1WnI35mxaD-3">
          <mxGeometry relative="1" as="geometry" />
        </mxCell>
        <mxCell id="adfcFUYsd-1WnI35mxaD-1" value="Datang atau Hubungi Admin" style="rounded=1;whiteSpace=wrap;html=1;" vertex="1" parent="hZe7DRyJ5SFJ-O_IEpeI-2">
          <mxGeometry x="20" y="140" width="120" height="60" as="geometry" />
        </mxCell>
        <mxCell id="adfcFUYsd-1WnI35mxaD-3" value="Pilih Produk" style="rounded=1;whiteSpace=wrap;html=1;" vertex="1" parent="hZe7DRyJ5SFJ-O_IEpeI-2">
          <mxGeometry x="20" y="240" width="120" height="60" as="geometry" />
        </mxCell>
        <mxCell id="hZe7DRyJ5SFJ-O_IEpeI-3" value="Admin" style="swimlane;startSize=20;html=1;" parent="hZe7DRyJ5SFJ-O_IEpeI-1" vertex="1">
          <mxGeometry x="160" y="20" width="160" height="1900" as="geometry" />
        </mxCell>
        <mxCell id="hZe7DRyJ5SFJ-O_IEpeI-37" style="edgeStyle=orthogonalEdgeStyle;rounded=0;orthogonalLoop=1;jettySize=auto;html=1;exitX=0.5;exitY=1;exitDx=0;exitDy=0;entryX=0.5;entryY=0;entryDx=0;entryDy=0;" parent="hZe7DRyJ5SFJ-O_IEpeI-3" target="hZe7DRyJ5SFJ-O_IEpeI-36" edge="1">
          <mxGeometry relative="1" as="geometry">
            <mxPoint x="79.99999999999955" y="1150" as="sourcePoint" />
          </mxGeometry>
        </mxCell>
        <mxCell id="hZe7DRyJ5SFJ-O_IEpeI-45" value="" style="edgeStyle=orthogonalEdgeStyle;rounded=0;orthogonalLoop=1;jettySize=auto;html=1;" parent="hZe7DRyJ5SFJ-O_IEpeI-3" target="hZe7DRyJ5SFJ-O_IEpeI-44" edge="1">
          <mxGeometry relative="1" as="geometry">
            <mxPoint x="79.99999999999955" y="1250" as="sourcePoint" />
          </mxGeometry>
        </mxCell>
        <mxCell id="hZe7DRyJ5SFJ-O_IEpeI-47" style="edgeStyle=orthogonalEdgeStyle;rounded=0;orthogonalLoop=1;jettySize=auto;html=1;exitX=0.5;exitY=1;exitDx=0;exitDy=0;entryX=0.5;entryY=0;entryDx=0;entryDy=0;" parent="hZe7DRyJ5SFJ-O_IEpeI-3" target="hZe7DRyJ5SFJ-O_IEpeI-46" edge="1">
          <mxGeometry relative="1" as="geometry">
            <mxPoint x="79.99999999999955" y="1350" as="sourcePoint" />
          </mxGeometry>
        </mxCell>
        <mxCell id="hZe7DRyJ5SFJ-O_IEpeI-49" value="" style="edgeStyle=orthogonalEdgeStyle;rounded=0;orthogonalLoop=1;jettySize=auto;html=1;" parent="hZe7DRyJ5SFJ-O_IEpeI-3" target="hZe7DRyJ5SFJ-O_IEpeI-48" edge="1">
          <mxGeometry relative="1" as="geometry">
            <mxPoint x="79.99999999999955" y="1450" as="sourcePoint" />
          </mxGeometry>
        </mxCell>
        <mxCell id="hZe7DRyJ5SFJ-O_IEpeI-63" style="edgeStyle=orthogonalEdgeStyle;rounded=0;orthogonalLoop=1;jettySize=auto;html=1;exitX=0.5;exitY=1;exitDx=0;exitDy=0;entryX=0.5;entryY=0;entryDx=0;entryDy=0;" parent="hZe7DRyJ5SFJ-O_IEpeI-3" target="hZe7DRyJ5SFJ-O_IEpeI-62" edge="1">
          <mxGeometry relative="1" as="geometry">
            <mxPoint x="79.99999999999955" y="1550" as="sourcePoint" />
          </mxGeometry>
        </mxCell>
        <mxCell id="hZe7DRyJ5SFJ-O_IEpeI-65" value="" style="edgeStyle=orthogonalEdgeStyle;rounded=0;orthogonalLoop=1;jettySize=auto;html=1;" parent="hZe7DRyJ5SFJ-O_IEpeI-3" target="hZe7DRyJ5SFJ-O_IEpeI-64" edge="1">
          <mxGeometry relative="1" as="geometry">
            <mxPoint x="79.99999999999955" y="1770" as="sourcePoint" />
          </mxGeometry>
        </mxCell>
        <mxCell id="hZe7DRyJ5SFJ-O_IEpeI-35" style="edgeStyle=orthogonalEdgeStyle;rounded=0;orthogonalLoop=1;jettySize=auto;html=1;exitX=1;exitY=0.5;exitDx=0;exitDy=0;entryX=0;entryY=0.5;entryDx=0;entryDy=0;" parent="hZe7DRyJ5SFJ-O_IEpeI-1" target="hZe7DRyJ5SFJ-O_IEpeI-34" edge="1">
          <mxGeometry relative="1" as="geometry">
            <mxPoint x="139.99999999999955" y="1140" as="sourcePoint" />
          </mxGeometry>
        </mxCell>
        <mxCell id="hZe7DRyJ5SFJ-O_IEpeI-39" style="edgeStyle=orthogonalEdgeStyle;rounded=0;orthogonalLoop=1;jettySize=auto;html=1;exitX=0;exitY=0.5;exitDx=0;exitDy=0;entryX=1;entryY=0.5;entryDx=0;entryDy=0;" parent="hZe7DRyJ5SFJ-O_IEpeI-1" source="hZe7DRyJ5SFJ-O_IEpeI-36" edge="1">
          <mxGeometry relative="1" as="geometry">
            <mxPoint x="139.99999999999955" y="1240" as="targetPoint" />
          </mxGeometry>
        </mxCell>
        <mxCell id="hZe7DRyJ5SFJ-O_IEpeI-60" style="edgeStyle=orthogonalEdgeStyle;rounded=0;orthogonalLoop=1;jettySize=auto;html=1;exitX=1;exitY=0.5;exitDx=0;exitDy=0;entryX=0;entryY=0.5;entryDx=0;entryDy=0;" parent="hZe7DRyJ5SFJ-O_IEpeI-1" target="hZe7DRyJ5SFJ-O_IEpeI-59" edge="1">
          <mxGeometry relative="1" as="geometry">
            <mxPoint x="139.99999999999955" y="1760" as="sourcePoint" />
          </mxGeometry>
        </mxCell>
      </root>
    </mxGraphModel>
  </diagram>
</mxfile>
